<svg xmlns="http://www.w3.org/2000/svg" viewBox="0 8.859999656677246 221.8300018310547 46.93000030517578" data-asc="0.9052734375" width="221.8300018310547" height="46.93000030517578"><defs/><g><g><g transform="translate(0, 0)"><path d="M17.94 31.23L17.94 27.03L33.11 27.00L33.11 40.28Q29.61 43.07 25.90 44.47Q22.19 45.87 18.29 45.87Q13.01 45.87 8.70 43.62Q4.39 41.36 2.20 37.08Q0 32.81 0 27.54Q0 22.31 2.19 17.79Q4.37 13.26 8.47 11.06Q12.57 8.86 17.92 8.86Q21.80 8.86 24.94 10.12Q28.08 11.38 29.86 13.62Q31.64 15.87 32.57 19.48L28.30 20.65Q27.49 17.92 26.29 16.36Q25.10 14.79 22.88 13.85Q20.65 12.92 17.94 12.92Q14.70 12.92 12.33 13.90Q9.96 14.89 8.51 16.50Q7.06 18.12 6.25 20.04Q4.88 23.36 4.88 27.25Q4.88 32.03 6.53 35.25Q8.18 38.48 11.33 40.04Q14.48 41.60 18.02 41.60Q21.09 41.60 24.02 40.42Q26.95 39.23 28.47 37.89L28.47 31.23L17.94 31.23ZM39.43 45.26L39.43 9.47L43.82 9.47L43.82 45.26L39.43 45.26ZM50.66 14.53L50.66 9.47L55.05 9.47L55.05 14.53L50.66 14.53M50.66 45.26L50.66 19.34L55.05 19.34L55.05 45.26L50.66 45.26ZM61.74 45.26L61.74 19.34L65.67 19.34L65.67 22.97Q66.89 21.07 68.92 19.91Q70.95 18.75 73.54 18.75Q76.42 18.75 78.26 19.95Q80.10 21.14 80.86 23.29Q83.94 18.75 88.87 18.75Q92.72 18.75 94.80 20.89Q96.88 23.02 96.88 27.47L96.88 45.26L92.50 45.26L92.50 28.93Q92.50 26.29 92.08 25.13Q91.65 23.97 90.53 23.27Q89.40 22.56 87.89 22.56Q85.16 22.56 83.35 24.38Q81.54 26.20 81.54 30.20L81.54 45.26L77.15 45.26L77.15 28.42Q77.15 25.49 76.07 24.02Q75 22.56 72.56 22.56Q70.70 22.56 69.13 23.54Q67.55 24.51 66.85 26.39Q66.14 28.27 66.14 31.81L66.14 45.26L61.74 45.26ZM103.39 45.26L103.39 19.34L107.32 19.34L107.32 22.97Q108.54 21.07 110.57 19.91Q112.60 18.75 115.19 18.75Q118.07 18.75 119.91 19.95Q121.75 21.14 122.51 23.29Q125.59 18.75 130.52 18.75Q134.38 18.75 136.45 20.89Q138.53 23.02 138.53 27.47L138.53 45.26L134.16 45.26L134.16 28.93Q134.16 26.29 133.73 25.13Q133.30 23.97 132.18 23.27Q131.05 22.56 129.54 22.56Q126.81 22.56 125 24.38Q123.19 26.20 123.19 30.20L123.19 45.26L118.80 45.26L118.80 28.42Q118.80 25.49 117.72 24.02Q116.65 22.56 114.21 22.56Q112.35 22.56 110.78 23.54Q109.20 24.51 108.50 26.39Q107.79 28.27 107.79 31.81L107.79 45.26L103.39 45.26ZM162.04 45.26L162.04 41.46Q159.01 45.85 153.81 45.85Q151.51 45.85 149.52 44.97Q147.53 44.09 146.57 42.76Q145.61 41.43 145.21 39.50Q144.95 38.21 144.95 35.40L144.95 19.34L149.34 19.34L149.34 33.72Q149.34 37.16 149.61 38.35Q150.02 40.09 151.37 41.08Q152.71 42.07 154.69 42.07Q156.67 42.07 158.40 41.05Q160.13 40.04 160.85 38.29Q161.57 36.55 161.57 33.23L161.57 19.34L165.97 19.34L165.97 45.26L162.04 45.26ZM172.85 45.26L172.85 19.34L176.81 19.34L176.81 23.02Q179.66 18.75 185.06 18.75Q187.40 18.75 189.37 19.59Q191.33 20.43 192.31 21.80Q193.29 23.17 193.68 25.05Q193.92 26.27 193.92 29.32L193.92 45.26L189.53 45.26L189.53 29.49Q189.53 26.81 189.01 25.48Q188.50 24.15 187.19 23.35Q185.89 22.56 184.13 22.56Q181.32 22.56 179.28 24.34Q177.25 26.12 177.25 31.10L177.25 45.26L172.85 45.26ZM199.85 47.41L204.13 48.05Q204.39 50.02 205.62 50.93Q207.25 52.15 210.08 52.15Q213.13 52.15 214.79 50.93Q216.46 49.71 217.04 47.51Q217.38 46.17 217.36 41.87Q214.48 45.26 210.18 45.26Q204.83 45.26 201.90 41.41Q198.97 37.55 198.97 32.15Q198.97 28.44 200.32 25.31Q201.66 22.17 204.21 20.46Q206.76 18.75 210.21 18.75Q214.79 18.75 217.77 22.46L217.77 19.34L221.83 19.34L221.83 41.75Q221.83 47.80 220.59 50.33Q219.36 52.86 216.69 54.32Q214.01 55.79 210.11 55.79Q205.47 55.79 202.61 53.70Q199.76 51.61 199.85 47.41M203.49 31.84Q203.49 36.94 205.52 39.28Q207.54 41.63 210.60 41.63Q213.62 41.63 215.67 39.29Q217.72 36.96 217.72 31.98Q217.72 27.22 215.61 24.80Q213.50 22.39 210.52 22.39Q207.59 22.39 205.54 24.77Q203.49 27.15 203.49 31.84Z"/></g><g transform="translate(0, 60.595703125)"><path d=""/></g></g></g></svg>